#!OML:ASF X:\für Bonn\!DataBase\2005_08_10_Bjorn_Final\c3d\bjorn.ASF
:FULLY-SPECIFIED
:DEGREES
226
root -10.0013 17.5922 -28.8125 22.0197 -63.1233 -20.534
lowerback -0.522076 3.75676 5.71481
upperback 8.1663 4.73214 -1.99817
thorax 9.63842 2.7911 -4.89676
lowerneck -3.54191 2.15145 5.31528
upperneck 1.54737 2.67306 -2.0533
head 1.19096 1.3387 -1.48954
rclavicle 6.36111e-015 -1.11319e-014
rhumerus -37.672 12.24 -106.13
rradius 77.8646
rwrist 5.378
rhand -21.0507 25.8477
rfingers 7.12502
rthumb 5.32543 -4.06538
lclavicle 6.36111e-015 -1.11319e-014
lhumerus -46.6673 -25.4815 96.2614
lradius 90.0268
lwrist -2.80657
lhand -42.7604 -26.2558
lfingers 7.12502
lthumb -15.6276 3.13293
rfemur 3.42579 -10.5529 5.40567
rtibia 68.8036
rfoot 5.42539 11.3871
rtoes -34.9474
lfemur -26.2481 -2.08055 -31.8945
ltibia 50.9761
lfoot -21.5455 2.10077
ltoes 23.8154
227
root -10.2464 17.5383 -28.7401 20.9201 -62.5124 -19.4129
lowerback -0.31986 3.59555 5.54915
upperback 8.24924 4.54037 -2.14441
thorax 9.5812 2.69174 -4.99227
lowerneck -3.50479 2.17283 5.28254
upperneck 1.28597 2.70329 -2.00277
head 1.10094 1.35147 -1.46716
rclavicle -5.88403e-014 1.59028e-014
rhumerus -38.384 10.8293 -105.371
rradius 76.7849
rwrist 5.19062
rhand -20.7857 24.8706
rfingers 7.12502
rthumb 5.58124 -5.03588
lclavicle -5.88403e-014 1.59028e-014
lhumerus -44.9886 -25.4811 96.1
lradius 89.4687
lwrist -3.02453
lhand -42.7728 -27.1876
lfingers 7.12502
lthumb -15.6395 2.2002
rfemur 1.56407 -10.687 4.6595
rtibia 71.2323
rfoot 4.49763 10.935
rtoes -33.5858
lfemur -25.3917 -2.60774 -32.191
ltibia 51.5317
lfoot -22.7063 1.87877
ltoes 23.2873
228
root -10.4881 17.4908 -28.6669 19.9713 -61.8483 -18.3903
lowerback -0.125272 3.42711 5.40537
upperback 8.30145 4.33762 -2.28494
thorax 9.49417 2.58717 -5.09401
lowerneck -3.46256 2.19927 5.30887
upperneck 1.05073 2.73802 -1.95331
head 1.01991 1.36698 -1.45559
rclavicle -1.63003e-014 1.27222e-014
rhumerus -38.9901 9.56085 -104.59
rradius 75.5489
rwrist 4.78769
rhand -20.7501 24.2134
rfingers 7.12502
rthumb 5.61568 -5.69217
lclavicle -1.63003e-014 1.27222e-014
lhumerus -43.5526 -25.4283 96.0768
lradius 89.0979
lwrist -3.4884
lhand -42.9315 -27.6941
lfingers 7.12502
lthumb -15.7924 1.68175
rfemur -0.461199 -10.812 4.17742
rtibia 73.4963
rfoot 3.20964 10.4503
rtoes -33.968
lfemur -24.5171 -3.05584 -32.4305
ltibia 51.9335
lfoot -23.7673 1.48995
ltoes 23.1859
229
root -10.7282 17.4486 -28.5911 19.095 -61.19 -17.4272
lowerback 0.0474455 3.25509 5.24869
upperback 8.36474 4.12622 -2.39138
thorax 9.42685 2.47605 -5.14985
lowerneck -3.41435 2.22962 5.24462
upperneck 0.805286 2.78203 -1.8785
head 0.932918 1.38684 -1.42001
rclavicle -9.38264e-014 1.90833e-014
rhumerus -39.7615 8.55634 -103.716
rradius 74.5328
rwrist 4.24921
rhand -20.8845 23.6884
rfingers 7.12502
rthumb 5.48585 -6.2206
lclavicle -9.38264e-014 1.90833e-014
lhumerus -42.1153 -25.3554 96.0957
lradius 88.723
lwrist -4.05764
lhand -43.1782 -27.7766
lfingers 7.12502
lthumb -16.0299 1.58022
rfemur -2.57974 -10.7582 3.80138
rtibia 75.5822
rfoot 1.90994 9.86838
rtoes -33.84
lfemur -23.5696 -3.41582 -32.6669
ltibia 52.1677
lfoot -24.7106 1.1516
ltoes 23.1554
230
root -10.9672 17.4143 -28.514 18.3259 -60.5112 -16.5513
lowerback 0.197329 3.08334 5.0814
upperback 8.41996 3.91184 -2.45621
thorax 9.3591 2.36032 -5.1528
lowerneck -3.32494 2.26211 5.17652
upperneck 0.566233 2.83224 -1.84234
head 0.842075 1.40961 -1.39658
rclavicle 4.85035e-014 3.18055e-015
rhumerus -40.5271 7.63745 -102.808
rradius 73.5751
rwrist 3.80206
rhand -21.341 23.3268
rfingers 7.12502
rthumb 5.04509 -6.59316
lclavicle 4.85035e-014 3.18055e-015
lhumerus -40.7501 -25.3657 96.1592
lradius 88.3371
lwrist -4.59125
lhand -43.4455 -27.6585
lfingers 7.12502
lthumb -16.2874 1.67745
rfemur -4.79803 -10.7197 3.48362
rtibia 77.458
rfoot 0.701698 9.32817
rtoes -33.7683
lfemur -22.5482 -3.70173 -32.8543
ltibia 52.2276
lfoot -25.5861 0.746176
ltoes 22.9425
231
root -11.2053 17.3934 -28.4331 17.6471 -59.8142 -15.7476
lowerback 0.334542 2.90781 4.94395
upperback 8.48191 3.69012 -2.52378
thorax 9.3092 2.24391 -5.17433
lowerneck -3.27563 2.30595 5.12771
upperneck 0.34875 2.8941 -1.78147
head 0.765374 1.43858 -1.36825
rclavicle -4.37326e-014 3.18055e-015
rhumerus -41.1729 6.79674 -101.908
rradius 72.6633
rwrist 3.54523
rhand -21.8557 23.6471
rfingers 7.12502
rthumb 4.54815 -6.28411
lclavicle -4.37326e-014 3.18055e-015
lhumerus -39.6849 -25.4219 96.3475
lradius 88.2704
lwrist -5.00968
lhand -43.6154 -27.1438
lfingers 7.12502
lthumb -16.4509 2.1787
rfemur -7.078 -10.553 3.34741
rtibia 79.0394
rfoot -0.424916 8.64132
rtoes -33.0746
lfemur -21.4529 -3.95772 -32.9925
ltibia 52.1053
lfoot -26.316 0.323128
ltoes 22.764
232
root -11.4434 17.3832 -28.3487 17.0804 -59.0814 -15.0006
lowerback 0.404033 2.72586 4.81686
upperback 8.52711 3.45651 -2.57287
thorax 9.27884 2.12194 -5.17913
lowerneck -3.22092 2.35383 5.09741
upperneck 0.147253 2.96126 -1.73623
head 0.693777 1.47026 -1.34826
rclavicle 7.87187e-014 -3.02153e-014
rhumerus -41.7307 6.01253 -101.008
rradius 71.7599
rwrist 3.4987
rhand -22.4878 24.1162
rfingers 7.12502
rthumb 3.93771 -5.82714
lclavicle 7.87187e-014 -3.02153e-014
lhumerus -38.6162 -25.6914 96.4878
lradius 88.3213
lwrist -5.05556
lhand -43.6442 -26.1047
lfingers 7.12502
lthumb -16.4786 3.21548
rfemur -9.38076 -10.2808 3.40059
rtibia 80.2939
rfoot -1.47992 8.07588
rtoes -31.9631
lfemur -20.3228 -4.18387 -33.0796
ltibia 51.8127
lfoot -26.9182 -0.115782
ltoes 22.6424
233
root -11.6794 17.379 -28.2593 16.6009 -58.3668 -14.3454
lowerback 0.434233 2.54551 4.74924
upperback 8.59959 3.219 -2.60424
thorax 9.30598 2.00362 -5.19634
lowerneck -3.28206 2.41387 5.00119
upperneck 0.00735571 3.04045 -1.64648
head 0.659416 1.50856 -1.30126
rclavicle 2.38542e-015 1.43125e-014
rhumerus -42.2962 5.38191 -100.073
rradius 70.9204
rwrist 3.40661
rhand -23.1021 24.5801
rfingers 7.12502
rthumb 3.34448 -5.37346
lclavicle 2.38542e-015 1.43125e-014
lhumerus -37.8072 -25.9409 96.8236
lradius 88.557
lwrist -5.04906
lhand -43.7223 -25.5876
lfingers 7.12502
lthumb -16.5539 3.72627
rfemur -11.7033 -10.0033 3.48024
rtibia 81.286
rfoot -2.39205 7.94854
rtoes -30.9675
lfemur -19.1375 -4.38204 -33.1346
ltibia 51.3733
lfoot -27.3763 -0.536342
ltoes 22.4003
234
root -11.9153 17.3833 -28.1672 16.3203 -57.5903 -13.7259
lowerback 0.299562 2.35294 4.67864
upperback 8.60353 2.96079 -2.59667
thorax 9.34821 1.87305 -5.16621
lowerneck -3.41092 2.48518 4.92472
upperneck -0.00868871 3.13158 -1.63317
head 0.677592 1.55355 -1.28076
rclavicle 3.57812e-014 1.59028e-015
rhumerus -42.815 4.72752 -99.148
rradius 70.0747
rwrist 3.38849
rhand -23.5774 24.8855
rfingers 7.12502
rthumb 2.88545 -5.07474
lclavicle 3.57812e-014 1.59028e-015
lhumerus -37.1205 -26.3077 97.1184
lradius 88.8744
lwrist -4.81612
lhand -43.8082 -25.709
lfingers 7.12502
lthumb -16.6366 3.59795
rfemur -14.1876 -9.83784 3.6287
rtibia 82.0263
rfoot -3.21357 7.86188
rtoes -30.1743
lfemur -18.0661 -4.6751 -33.1283
ltibia 50.8019
lfoot -27.6386 -1.01489
ltoes 22.4876
235
root -12.15 17.3962 -28.069 16.2252 -56.8165 -13.2231
lowerback 0.0287437 2.15369 4.70829
upperback 8.61627 2.68473 -2.59056
thorax 9.48698 1.74475 -5.19276
lowerneck -3.69183 2.57914 4.89036
upperneck 0.0855759 3.24312 -1.60999
head 0.757418 1.60961 -1.26194
rclavicle 6.36111e-014 -9.54166e-015
rhumerus -43.3036 4.12269 -98.2569
rradius 69.3404
rwrist 3.42338
rhand -23.896 24.9786
rfingers 7.12502
rthumb 2.57779 -4.9856
lclavicle 6.36111e-014 -9.54166e-015
lhumerus -36.4833 -26.5977 97.4566
lradius 89.1561
lwrist -4.68027
lhand -43.9632 -26.3864
lfingers 7.12502
lthumb -16.7858 2.908
rfemur -16.7541 -9.67625 3.85453
rtibia 82.5269
rfoot -3.9995 7.77718
rtoes -30.1225
lfemur -17.0212 -5.09673 -33.0732
ltibia 50.0988
lfoot -27.7697 -1.38104
ltoes 22.4079
236
root -12.3845 17.4188 -27.9648 16.1218 -56.0144 -12.76
lowerback -0.205758 1.93587 4.74079
upperback 8.63275 2.38119 -2.54359
thorax 9.60233 1.60076 -5.18202
lowerneck -4.00507 2.67657 4.82079
upperneck 0.27465 3.36014 -1.61556
head 0.872848 1.66908 -1.24513
rclavicle -2.14687e-014 9.54166e-015
rhumerus -43.8618 3.55388 -97.3799
rradius 68.7471
rwrist 3.39836
rhand -23.9855 24.99
rfingers 7.12502
rthumb 2.49134 -4.97516
lclavicle -2.14687e-014 9.54166e-015
lhumerus -35.9545 -26.9349 97.8154
lradius 89.492
lwrist -4.42062
lhand -44.0707 -27.0179
lfingers 7.12502
lthumb -16.8893 2.26765
rfemur -19.1975 -9.49937 4.12236
rtibia 82.7349
rfoot -4.86519 8.07223
rtoes -30.6644
lfemur -15.865 -5.61899 -33.0012
ltibia 49.2682
lfoot -27.7315 -1.64806
ltoes 22.2538
237
root -12.6192 17.4493 -27.8572 16.012 -55.2333 -12.4198
lowerback -0.313016 1.7022 4.81263
upperback 8.6716 2.05537 -2.47881
thorax 9.66584 1.44681 -5.1806
lowerneck -4.34497 2.80689 4.79172
upperneck 0.506921 3.51852 -1.63857
head 1.00968 1.74934 -1.23912
rclavicle -1.19271e-014 -1.59028e-015
rhumerus -44.2757 3.06617 -96.5102
rradius 68.0966
rwrist 3.37159
rhand -23.8936 24.9468
rfingers 7.12502
rthumb 2.58013 -5.01735
lclavicle -1.19271e-014 -1.59028e-015
lhumerus -35.3423 -27.2634 98.128
lradius 89.7783
lwrist -4.21122
lhand -44.1038 -27.0257
lfingers 7.12502
lthumb -16.9211 2.25718
rfemur -21.4422 -9.19883 4.48659
rtibia 82.6444
rfoot -5.82464 8.54582
rtoes -31.0779
lfemur -14.534 -6.00739 -32.8583
ltibia 48.3124
lfoot -27.5801 -1.92443
ltoes 21.6128
